<svg width="24" height="24" viewBox="0 0 24 24" fill="none" xmlns="http://www.w3.org/2000/svg">
<path d="M14.1706 20.8905C18.3536 20.6125 21.6856 17.2332 21.9598 12.9909C22.0134 12.1607 22.0134 11.3009 21.9598 10.4707C21.6856 6.22838 18.3536 2.84913 14.1706 2.57107C12.7435 2.47621 11.2536 2.47641 9.8294 2.57107C5.64639 2.84913 2.31441 6.22838 2.04024 10.4707C1.98659 11.3009 1.98659 12.1607 2.04024 12.9909C2.1401 14.536 2.82343 15.9666 3.62791 17.1746C4.09501 18.0203 3.78674 19.0758 3.30021 19.9978C2.94941 20.6626 2.77401 20.995 2.91484 21.2351C3.05568 21.4752 3.37026 21.4829 3.99943 21.4982C5.24367 21.5285 6.08268 21.1757 6.74868 20.6846C7.1264 20.4061 7.31527 20.2668 7.44544 20.2508C7.5756 20.2348 7.83177 20.3403 8.34401 20.5513C8.8044 20.7409 9.33896 20.8579 9.8294 20.8905C11.2536 20.9852 12.7435 20.9854 14.1706 20.8905Z" stroke="#FFE0C2" stroke-width="1.5" stroke-linejoin="round"/>
<path d="M9.16 10.292C8.85067 10.292 8.59733 10.4147 8.4 10.66C8.208 10.9 8.088 11.26 8.04 11.74C8.17867 11.58 8.336 11.468 8.512 11.404C8.688 11.3347 8.88267 11.3 9.096 11.3C9.36267 11.3 9.6 11.356 9.808 11.468C10.0213 11.58 10.1867 11.7373 10.304 11.94C10.4213 12.1373 10.48 12.3587 10.48 12.604C10.48 12.908 10.408 13.1827 10.264 13.428C10.1253 13.668 9.92 13.86 9.648 14.004C9.38133 14.1427 9.064 14.212 8.696 14.212C8.14667 14.212 7.72533 14.0413 7.432 13.7C7.144 13.3533 7 12.876 7 12.268C7 11.724 7.09067 11.244 7.272 10.828C7.45867 10.4067 7.72 10.0813 8.056 9.852C8.39733 9.61733 8.79467 9.5 9.248 9.5C9.65867 9.5 9.99467 9.596 10.256 9.788C10.5227 9.97467 10.6747 10.2227 10.712 10.532L10.72 10.62C10.72 10.7587 10.6747 10.868 10.584 10.948C10.4987 11.0227 10.376 11.06 10.216 11.06C10.0987 11.06 10.0027 11.0307 9.928 10.972C9.85867 10.908 9.79733 10.8013 9.744 10.652C9.70133 10.54 9.62933 10.452 9.528 10.388C9.432 10.324 9.30933 10.292 9.16 10.292ZM8.856 12.1C8.62667 12.1 8.448 12.164 8.32 12.292C8.192 12.42 8.128 12.5907 8.128 12.804C8.128 12.996 8.18133 13.148 8.288 13.26C8.39467 13.372 8.544 13.428 8.736 13.428C8.94933 13.428 9.12 13.3613 9.248 13.228C9.38133 13.0893 9.448 12.9107 9.448 12.692C9.448 12.5107 9.39467 12.3667 9.288 12.26C9.18133 12.1533 9.03733 12.1 8.856 12.1Z" fill="#FFE0C2"/>
<path d="M16.8933 9.516C16.9786 9.516 17.048 9.556 17.1013 9.636C17.16 9.71067 17.1893 9.82533 17.1893 9.98C17.1893 10.124 17.16 10.2333 17.1013 10.308C17.0426 10.3773 16.968 10.4413 16.8773 10.5C16.792 10.5587 16.7306 10.6013 16.6933 10.628C16.128 11.0173 15.7333 11.4627 15.5093 11.964C15.2906 12.4653 15.1573 13.0013 15.1093 13.572C15.088 13.796 15.0266 13.9587 14.9253 14.06C14.8293 14.1613 14.7066 14.212 14.5573 14.212C14.408 14.212 14.2826 14.1613 14.1813 14.06C14.08 13.9533 14.0293 13.7693 14.0293 13.508C14.0293 13.204 14.0853 12.8707 14.1973 12.508C14.3146 12.14 14.4986 11.7747 14.7493 11.412C15.0053 11.0493 15.328 10.7267 15.7173 10.444L13.7493 10.476C13.6373 10.476 13.552 10.4387 13.4933 10.364C13.4346 10.2893 13.4053 10.196 13.4053 10.084C13.4053 9.94533 13.448 9.82267 13.5333 9.716C13.624 9.604 13.744 9.548 13.8933 9.548C14.1546 9.548 14.536 9.56667 15.0373 9.604C15.1386 9.60933 15.3253 9.62 15.5973 9.636C15.8693 9.652 16.0826 9.66 16.2373 9.66C16.3066 9.66 16.408 9.636 16.5413 9.588C16.568 9.58267 16.6186 9.56933 16.6933 9.548C16.7733 9.52667 16.84 9.516 16.8933 9.516Z" fill="#FFE0C2"/>
</svg>
