<svg width="50" height="50" viewBox="0 0 50 50" fill="none" xmlns="http://www.w3.org/2000/svg">
<rect width="50" height="50" rx="12" fill="#222222"/>
<g filter="url(#filter0_i_39_87)">
<path d="M28.3333 31L33.288 32.4903C35.1379 33.0564 36.5121 34.5404 36.9684 36.3465C37.1487 37.0608 36.5319 37.6667 35.7915 37.6667H14.2085C13.4681 37.6667 12.8513 37.0608 13.0317 36.3465C13.4879 34.5404 14.8621 33.0564 16.712 32.4903L21.6667 31V28.1267C19.9536 27.9096 18.3739 27.5293 17 27.0215C17.6667 25.7096 18.3333 23.7417 18.3333 19.1502C18.3333 11.2789 25.6667 11.2788 27.6667 13.9023C31.6667 13.2467 31.6667 16.5264 31.6667 20.4621C31.6667 23.6105 32.5556 26.1469 33 27.0215C31.6261 27.5293 30.0464 27.9096 28.3333 28.1267V31Z" fill="#FFE0C2"/>
</g>
<path d="M28.3333 31L33.288 32.4903C35.1379 33.0564 36.5121 34.5404 36.9684 36.3465C37.1487 37.0608 36.5319 37.6667 35.7915 37.6667H14.2085C13.4681 37.6667 12.8513 37.0608 13.0317 36.3465C13.4879 34.5404 14.8621 33.0564 16.712 32.4903L21.6667 31V28.1267C19.9536 27.9096 18.3739 27.5293 17 27.0215C17.6667 25.7096 18.3333 23.7417 18.3333 19.1502C18.3333 11.2789 25.6667 11.2788 27.6667 13.9023C31.6667 13.2467 31.6667 16.5264 31.6667 20.4621C31.6667 23.6105 32.5556 26.1469 33 27.0215C31.6261 27.5293 30.0464 27.9096 28.3333 28.1267V31Z" stroke="#FFE0C2" stroke-width="1.5" stroke-linejoin="round"/>
<defs>
<filter id="filter0_i_39_87" x="12.246" y="11.5833" width="25.5081" height="30.8333" filterUnits="userSpaceOnUse" color-interpolation-filters="sRGB">
<feFlood flood-opacity="0" result="BackgroundImageFix"/>
<feBlend mode="normal" in="SourceGraphic" in2="BackgroundImageFix" result="shape"/>
<feColorMatrix in="SourceAlpha" type="matrix" values="0 0 0 0 0 0 0 0 0 0 0 0 0 0 0 0 0 0 127 0" result="hardAlpha"/>
<feOffset dy="4"/>
<feGaussianBlur stdDeviation="2"/>
<feComposite in2="hardAlpha" operator="arithmetic" k2="-1" k3="1"/>
<feColorMatrix type="matrix" values="0 0 0 0 0 0 0 0 0 0 0 0 0 0 0 0 0 0 0.25 0"/>
<feBlend mode="normal" in2="shape" result="effect1_innerShadow_39_87"/>
</filter>
</defs>
</svg>
