<svg width="50" height="50" viewBox="0 0 50 50" fill="none" xmlns="http://www.w3.org/2000/svg">
<rect width="50" height="50" rx="12" fill="#222222"/>
<g filter="url(#filter0_i_37_86)">
<path d="M28.3333 31.0001L33.288 32.4904C35.1379 33.0565 36.5121 34.5404 36.9684 36.3467C37.1487 37.0609 36.5319 37.6668 35.7915 37.6668H14.2085C13.4681 37.6668 12.8513 37.0609 13.0317 36.3467C13.4879 34.5404 14.8621 33.0565 16.712 32.4904L21.6667 31.0001V28.4164C19.2922 26.558 17.6667 24.3332 17.6667 19.5556C17.6667 14.7692 20.273 12.3332 24.3231 12.3332C27.1911 12.3332 28.3847 13.6666 28.3847 13.6666C31.7692 13.6666 32.3333 16.4628 32.3333 19.5556C32.3333 24.3332 30.7077 26.558 28.3333 28.4164V31.0001Z" fill="#FFE0C2"/>
</g>
<path d="M28.3333 31.0001L33.288 32.4904C35.1379 33.0565 36.5121 34.5404 36.9684 36.3467C37.1487 37.0609 36.5319 37.6668 35.7915 37.6668H14.2085C13.4681 37.6668 12.8513 37.0609 13.0317 36.3467C13.4879 34.5404 14.8621 33.0565 16.712 32.4904L21.6667 31.0001V28.4164C19.2922 26.558 17.6667 24.3332 17.6667 19.5556C17.6667 14.7692 20.273 12.3332 24.3231 12.3332C27.1911 12.3332 28.3847 13.6666 28.3847 13.6666C31.7692 13.6666 32.3333 16.4628 32.3333 19.5556C32.3333 24.3332 30.7077 26.558 28.3333 28.4164V31.0001Z" stroke="#FFE1C2" stroke-width="1.5" stroke-linejoin="round"/>
<defs>
<filter id="filter0_i_37_86" x="12.246" y="11.5832" width="25.5081" height="30.8336" filterUnits="userSpaceOnUse" color-interpolation-filters="sRGB">
<feFlood flood-opacity="0" result="BackgroundImageFix"/>
<feBlend mode="normal" in="SourceGraphic" in2="BackgroundImageFix" result="shape"/>
<feColorMatrix in="SourceAlpha" type="matrix" values="0 0 0 0 0 0 0 0 0 0 0 0 0 0 0 0 0 0 127 0" result="hardAlpha"/>
<feOffset dy="4"/>
<feGaussianBlur stdDeviation="2"/>
<feComposite in2="hardAlpha" operator="arithmetic" k2="-1" k3="1"/>
<feColorMatrix type="matrix" values="0 0 0 0 0 0 0 0 0 0 0 0 0 0 0 0 0 0 0.25 0"/>
<feBlend mode="normal" in2="shape" result="effect1_innerShadow_37_86"/>
</filter>
</defs>
</svg>
